<svg xmlns="http://www.w3.org/2000/svg" xmlns:xlink="http://www.w3.org/1999/xlink" version="1.1" id="Layer_1" x="0px" y="0px" style="enable-background:new 0 0 378 660;" xml:space="preserve" viewBox="-139.2 110.1 657.2 392.6">
<style type="text/css">
	.st0{fill:none;stroke:#000000;stroke-width:2;stroke-linejoin:round;stroke-miterlimit:10;}
	.st1{stroke:#000000;stroke-width:2;stroke-linejoin:round;stroke-miterlimit:10;}
	.st2{fill:none;stroke:#073763;stroke-width:2;stroke-linejoin:round;stroke-miterlimit:10;}
</style>
<path class="st0" d="M189.2,501.7V111.1"/>
<path class="st0" d="M189.2,348.2L189.2,348.2c-23.1,0-41.8-18.7-41.8-41.8l0,0c0-11.1,4.4-21.7,12.2-29.5  c7.8-7.8,18.5-12.2,29.5-12.2l0,0c23.1,0,41.8,18.7,41.8,41.8l0,0C230.9,329.5,212.2,348.2,189.2,348.2z"/>
<path class="st0" d="M-138.1,360.7V252.4h125.8v108.3H-138.1z"/>
<path class="st0" d="M-34.9,360.4v4.6"/>
<path class="st0" d="M-34.9,247.8v4.6"/>
<path class="st0" d="M-59.5,247.8v4.6"/>
<path class="st0" d="M-59.5,360.4v4.6"/>
<path class="st0" d="M-103.1,247.8v4.6"/>
<path class="st0" d="M-103.1,360.4v4.6"/>
<path class="st1" d="M-84.8,364.1v-2.6h7v2.6H-84.8z"/>
<path class="st1" d="M-84.8,251.4v-2.6h7v2.6H-84.8z"/>
<path class="st0" d="M-108.2,151.7c41.9-1.5,82.6,14.2,112.8,43.4c30.1,29.2,47.1,69.4,46.9,111.4"/>
<path class="st0" d="M-108.2,460.1c41.9,1.5,82.7-14.2,112.8-43.4c30.1-29.2,47.1-69.4,46.9-111.4"/>
<path class="st0" d="M-105.7,460.2h-32.5"/>
<path class="st0" d="M-105.7,151.6h-32.5"/>
<path class="st0" d="M-12.9,263.6L-12.9,263.6c23.4,0.6,41.9,19.8,41.8,43.2c-0.2,23.4-19,42.3-42.4,42.7"/>
<path class="st2" d="M-102.8,277.5L-102.8,277.5c0.2,0,0.4,0,0.6,0"/>
<path class="st0" d="M-113.2,327.4V285"/>
<path class="st0" d="M-103.2,312.7L-103.2,312.7c-3.4,0-6.1-2.7-6.1-6.1l0,0c0-1.6,0.6-3.2,1.8-4.3c1.1-1.1,2.7-1.8,4.3-1.8l0,0  c3.4,0,6.1,2.7,6.1,6.1l0,0C-97.1,309.9-99.8,312.7-103.2,312.7z"/>
<path class="st0" d="M-113.3,306.6h3.9"/>
<path class="st0" d="M-101.6,335.5H-113"/>
<path class="st0" d="M-102.8,277.5h-10.4"/>
<path class="st0" d="M-102.8,277.5L-102.8,277.5c16,0,29,13,29,29s-13,29-29,29"/>
<path class="st0" d="M517,360.7V252.4H391.2v108.3H517z"/>
<path class="st0" d="M413.8,360.4v4.6"/>
<path class="st0" d="M413.8,247.8v4.6"/>
<path class="st0" d="M438.4,247.8v4.6"/>
<path class="st0" d="M438.4,360.4v4.6"/>
<path class="st0" d="M482,247.8v4.6"/>
<path class="st0" d="M482,360.4v4.6"/>
<path class="st1" d="M463.6,364.1v-2.6h-7v2.6H463.6z"/>
<path class="st1" d="M463.6,251.4v-2.6h-7v2.6H463.6z"/>
<path class="st0" d="M487,151.7c-41.9-1.5-82.6,14.2-112.8,43.4c-30.1,29.2-47.1,69.4-46.9,111.4"/>
<path class="st0" d="M487,460.1c-41.9,1.5-82.6-14.2-112.8-43.4c-30.1-29.2-47.1-69.4-46.9-111.4"/>
<path class="st0" d="M484.6,460.2H517"/>
<path class="st0" d="M484.6,151.6H517"/>
<path class="st0" d="M391.8,263.6L391.8,263.6c-23.4,0.6-41.9,19.8-41.8,43.2c0.2,23.4,19,42.3,42.4,42.7"/>
<path class="st2" d="M481.7,277.5L481.7,277.5c-0.2,0-0.4,0-0.6,0"/>
<path class="st0" d="M492.1,327.4V285"/>
<path class="st0" d="M482.1,312.7L482.1,312.7c3.4,0,6.1-2.7,6.1-6.1l0,0c0-1.6-0.6-3.2-1.8-4.3c-1.1-1.1-2.7-1.8-4.3-1.8l0,0  c-3.4,0-6.1,2.7-6.1,6.1l0,0C476,309.9,478.7,312.7,482.1,312.7z"/>
<path class="st0" d="M492.2,306.6h-3.9"/>
<path class="st0" d="M480.5,335.5h11.3"/>
<path class="st0" d="M481.7,277.5h10.4"/>
<path class="st0" d="M481.7,277.5L481.7,277.5c-16,0-29,13-29,29s13,29,29,29"/>
</svg>