<?xml version="1.0" encoding="UTF-8"?>
<svg id="Layer_6" data-name="Layer 6" xmlns="http://www.w3.org/2000/svg" xmlns:xlink="http://www.w3.org/1999/xlink" viewBox="0 0 432 432">
  <defs>
    <style>
      .cls-1 {
        clip-path: url(#clippath);
      }

      .cls-2 {
        fill: #323379;
      }

      .cls-3 {
        fill: #db2777;
      }

      .cls-4 {
        fill: #6e143c;
      }

      .cls-5 {
        fill: #6366f1;
      }

      .cls-6 {
        clip-path: url(#clippath-1);
      }
    </style>
    <clipPath id="clippath">
      <path d="M169.17,196.67c-3.8-1.76-8.01-2.67-12.28-2.67-11.27,0-21.38,6.33-25.44,15.93-4.05,9.6-1.22,20.49,7.14,27.39,8.36,6.9,20.51,8.4,30.57,3.76,9.18-4.23,14.97-12.82,14.98-22.21,0-9.39-5.8-17.97-14.98-22.21Zm-7.58,32.56c-4.59,1.73-9.87,.78-13.38-2.43-3.51-3.2-4.56-8.02-2.66-12.21,1.9-4.19,6.38-6.92,11.34-6.92,6.78,0,12.27,5.02,12.28,11.2,0,4.53-2.99,8.62-7.58,10.35Z"/>
    </clipPath>
    <clipPath id="clippath-1">
      <path d="M232.34,196.64c-3.8-1.76-8.01-2.67-12.28-2.67-11.27,0-21.38,6.33-25.44,15.93-4.05,9.6-1.22,20.49,7.14,27.39,8.36,6.9,20.51,8.4,30.57,3.76,9.18-4.23,14.97-12.82,14.98-22.21,0-9.39-5.8-17.97-14.98-22.21Zm-7.58,32.56c-4.59,1.73-9.87,.78-13.38-2.43-3.51-3.2-4.56-8.02-2.66-12.21,1.9-4.19,6.38-6.92,11.34-6.92,6.78,0,12.27,5.02,12.28,11.2,0,4.53-2.99,8.62-7.58,10.35Z"/>
    </clipPath>
  </defs>
  <path d="M283.86,193.99c-12.34,0-23.13,7.56-26.33,18.44-3.19,10.88,2.02,22.35,12.7,27.98,10.68,5.63,24.18,4.01,32.9-3.95l-10.59-9.67c-3.51,3.2-8.79,4.16-13.38,2.43-4.59-1.73-7.58-5.82-7.58-10.35s2.99-8.62,7.58-10.35c4.59-1.73,9.87-.78,13.38,2.43l10.59-9.67c-5.1-4.68-12.04-7.3-19.27-7.29"/>
  <path d="M334.16,193.97c-3.15,0-6.28,.56-9.19,1.66v20.41c0-4.63,4.12-8.39,9.19-8.39s9.19,3.76,9.19,8.39v27.69h14.98v-27.69c-.01-12.18-10.83-22.05-24.17-22.06"/>
  <path class="cls-5" d="M324.97,164.63h-14.98v51.4c0-8.94,5.92-17,14.98-20.41v-30.99"/>
  <path class="cls-2" d="M324.97,195.62c-9.06,3.41-14.97,11.46-14.98,20.41v27.69h14.98v-48.1"/>
  <path class="cls-3" d="M88.65,193.95h-14.98v21.86c.01-8.91,5.93-16.92,14.98-20.27v-1.59"/>
  <path d="M97.62,193.95c-3.07,0-6.12,.54-8.97,1.59v20.27c0-4.52,4.02-8.19,8.97-8.19s8.97,3.66,8.97,8.19v27.93h14.98v-27.93c-.02-12.07-10.73-21.84-23.95-21.86"/>
  <path class="cls-4" d="M88.65,195.54c-9.05,3.35-14.97,11.36-14.98,20.27v27.93h14.98v-48.2"/>
  <path d="M184.15,193.98h-14.98v2.67c9.18,4.23,14.97,12.82,14.98,22.21v-24.88m0,24.88c0,9.39-5.8,17.97-14.98,22.21v2.67h14.98v-24.88"/>
  <path d="M247.32,193.98h-14.98v2.67c9.18,4.23,14.97,12.82,14.98,22.21v-24.88m0,24.88c0,9.39-5.8,17.97-14.98,22.21v2.67h14.98v-24.88"/>
  <path d="M169.17,196.65v44.42c9.18-4.23,14.97-12.82,14.98-22.21h0c0-9.39-5.8-17.97-14.98-22.21"/>
  <path d="M232.34,196.65v44.42c9.18-4.23,14.97-12.82,14.98-22.21h0c0-9.39-5.8-17.97-14.98-22.21"/>
  <g>
    <path d="M169.17,196.67c-3.8-1.76-8.01-2.67-12.28-2.67-11.27,0-21.38,6.33-25.44,15.93-4.05,9.6-1.22,20.49,7.14,27.39,8.36,6.9,20.51,8.4,30.57,3.76,9.18-4.23,14.97-12.82,14.98-22.21,0-9.39-5.8-17.97-14.98-22.21Zm-7.58,32.56c-4.59,1.73-9.87,.78-13.38-2.43-3.51-3.2-4.56-8.02-2.66-12.21,1.9-4.19,6.38-6.92,11.34-6.92,6.78,0,12.27,5.02,12.28,11.2,0,4.53-2.99,8.62-7.58,10.35Z"/>
    <g class="cls-1">
      <circle cx="156.73" cy="218.87" r="27.43"/>
    </g>
  </g>
  <g>
    <path d="M232.34,196.64c-3.8-1.76-8.01-2.67-12.28-2.67-11.27,0-21.38,6.33-25.44,15.93-4.05,9.6-1.22,20.49,7.14,27.39,8.36,6.9,20.51,8.4,30.57,3.76,9.18-4.23,14.97-12.82,14.98-22.21,0-9.39-5.8-17.97-14.98-22.21Zm-7.58,32.56c-4.59,1.73-9.87,.78-13.38-2.43-3.51-3.2-4.56-8.02-2.66-12.21,1.9-4.19,6.38-6.92,11.34-6.92,6.78,0,12.27,5.02,12.28,11.2,0,4.53-2.99,8.62-7.58,10.35Z"/>
    <g class="cls-6">
      <circle cx="219.89" cy="218.85" r="27.43"/>
    </g>
  </g>
</svg>