<svg width="34" height="10" viewBox="0 0 34 10" fill="none" xmlns="http://www.w3.org/2000/svg">
<path d="M1.92614 5.0625V9H0.920455V2.45455H1.89205V3.47727H1.97727C2.13068 3.14489 2.36364 2.87784 2.67614 2.67614C2.98864 2.47159 3.39205 2.36932 3.88636 2.36932C4.32955 2.36932 4.71733 2.46023 5.04972 2.64205C5.3821 2.82102 5.64063 3.09375 5.82528 3.46023C6.00994 3.82386 6.10227 4.28409 6.10227 4.84091V9H5.09659V4.90909C5.09659 4.39489 4.96307 3.99432 4.69602 3.70739C4.42898 3.41761 4.0625 3.27273 3.59659 3.27273C3.27557 3.27273 2.98864 3.34233 2.7358 3.48153C2.4858 3.62074 2.28835 3.82386 2.14347 4.09091C1.99858 4.35795 1.92614 4.68182 1.92614 5.0625ZM9.86612 9.15341C9.45135 9.15341 9.07493 9.07528 8.73686 8.91903C8.39879 8.75994 8.13033 8.53125 7.93146 8.23295C7.7326 7.93182 7.63317 7.56818 7.63317 7.14205C7.63317 6.76705 7.70703 6.46307 7.85476 6.23011C8.00249 5.99432 8.19993 5.80966 8.44709 5.67614C8.69425 5.54261 8.96697 5.44318 9.26527 5.37784C9.56641 5.30966 9.86896 5.25568 10.1729 5.21591C10.5707 5.16477 10.8931 5.12642 11.1403 5.10085C11.3903 5.07244 11.5721 5.02557 11.6857 4.96023C11.8022 4.89489 11.8604 4.78125 11.8604 4.61932V4.58523C11.8604 4.16477 11.7454 3.83807 11.5153 3.60511C11.288 3.37216 10.9428 3.25568 10.4798 3.25568C9.99964 3.25568 9.62322 3.3608 9.3505 3.57102C9.07777 3.78125 8.88601 4.00568 8.77521 4.24432L7.82067 3.90341C7.99112 3.50568 8.21839 3.19602 8.50249 2.97443C8.78942 2.75 9.10192 2.59375 9.43999 2.50568C9.78089 2.41477 10.1161 2.36932 10.4457 2.36932C10.6559 2.36932 10.8974 2.39489 11.1701 2.44602C11.4457 2.49432 11.7113 2.59517 11.967 2.74858C12.2255 2.90199 12.44 3.13352 12.6104 3.44318C12.7809 3.75284 12.8661 4.16761 12.8661 4.6875V9H11.8604V8.11364H11.8093C11.7411 8.25568 11.6275 8.40767 11.4684 8.5696C11.3093 8.73153 11.0977 8.86932 10.8335 8.98295C10.5692 9.09659 10.2468 9.15341 9.86612 9.15341ZM10.0195 8.25C10.4173 8.25 10.7525 8.17188 11.0252 8.01562C11.3008 7.85938 11.5082 7.65767 11.6474 7.41051C11.7894 7.16335 11.8604 6.90341 11.8604 6.63068V5.71023C11.8178 5.76136 11.7241 5.80824 11.5792 5.85085C11.4371 5.89062 11.2724 5.92614 11.0849 5.95739C10.9002 5.9858 10.7198 6.01136 10.5437 6.03409C10.3704 6.05398 10.2298 6.07102 10.1218 6.08523C9.86044 6.11932 9.61612 6.17472 9.38885 6.25142C9.16442 6.32528 8.9826 6.4375 8.84339 6.58807C8.70703 6.7358 8.63885 6.9375 8.63885 7.19318C8.63885 7.54261 8.76811 7.80682 9.02663 7.9858C9.288 8.16193 9.61896 8.25 10.0195 8.25ZM16.6278 9.15341C16.2131 9.15341 15.8366 9.07528 15.4986 8.91903C15.1605 8.75994 14.892 8.53125 14.6932 8.23295C14.4943 7.93182 14.3949 7.56818 14.3949 7.14205C14.3949 6.76705 14.4688 6.46307 14.6165 6.23011C14.7642 5.99432 14.9616 5.80966 15.2088 5.67614C15.456 5.54261 15.7287 5.44318 16.027 5.37784C16.3281 5.30966 16.6307 5.25568 16.9347 5.21591C17.3324 5.16477 17.6548 5.12642 17.902 5.10085C18.152 5.07244 18.3338 5.02557 18.4474 4.96023C18.5639 4.89489 18.6222 4.78125 18.6222 4.61932V4.58523C18.6222 4.16477 18.5071 3.83807 18.277 3.60511C18.0497 3.37216 17.7045 3.25568 17.2415 3.25568C16.7614 3.25568 16.3849 3.3608 16.1122 3.57102C15.8395 3.78125 15.6477 4.00568 15.5369 4.24432L14.5824 3.90341C14.7528 3.50568 14.9801 3.19602 15.2642 2.97443C15.5511 2.75 15.8636 2.59375 16.2017 2.50568C16.5426 2.41477 16.8778 2.36932 17.2074 2.36932C17.4176 2.36932 17.6591 2.39489 17.9318 2.44602C18.2074 2.49432 18.473 2.59517 18.7287 2.74858C18.9872 2.90199 19.2017 3.13352 19.3722 3.44318C19.5426 3.75284 19.6278 4.16761 19.6278 4.6875V9H18.6222V8.11364H18.571C18.5028 8.25568 18.3892 8.40767 18.2301 8.5696C18.071 8.73153 17.8594 8.86932 17.5952 8.98295C17.331 9.09659 17.0085 9.15341 16.6278 9.15341ZM16.7812 8.25C17.179 8.25 17.5142 8.17188 17.7869 8.01562C18.0625 7.85938 18.2699 7.65767 18.4091 7.41051C18.5511 7.16335 18.6222 6.90341 18.6222 6.63068V5.71023C18.5795 5.76136 18.4858 5.80824 18.3409 5.85085C18.1989 5.89062 18.0341 5.92614 17.8466 5.95739C17.6619 5.9858 17.4815 6.01136 17.3054 6.03409C17.1321 6.05398 16.9915 6.07102 16.8835 6.08523C16.6222 6.11932 16.3778 6.17472 16.1506 6.25142C15.9261 6.32528 15.7443 6.4375 15.6051 6.58807C15.4688 6.7358 15.4006 6.9375 15.4006 7.19318C15.4006 7.54261 15.5298 7.80682 15.7884 7.9858C16.0497 8.16193 16.3807 8.25 16.7812 8.25ZM24.1225 9.13636C23.5089 9.13636 22.9805 8.99148 22.5373 8.7017C22.0941 8.41193 21.7532 8.01278 21.5146 7.50426C21.2759 6.99574 21.1566 6.41477 21.1566 5.76136C21.1566 5.09659 21.2788 4.50994 21.5231 4.00142C21.7702 3.49006 22.114 3.09091 22.5543 2.80398C22.9975 2.5142 23.5146 2.36932 24.1055 2.36932C24.5657 2.36932 24.9805 2.45455 25.3498 2.625C25.7191 2.79545 26.0217 3.03409 26.2575 3.34091C26.4933 3.64773 26.6396 4.00568 26.6964 4.41477H25.6907C25.614 4.11648 25.4435 3.85227 25.1793 3.62216C24.918 3.3892 24.5657 3.27273 24.1225 3.27273C23.7305 3.27273 23.3867 3.375 23.0913 3.57955C22.7987 3.78125 22.57 4.06676 22.4052 4.43608C22.2433 4.80256 22.1623 5.23295 22.1623 5.72727C22.1623 6.23295 22.2418 6.6733 22.4009 7.0483C22.5629 7.4233 22.7901 7.71449 23.0827 7.92188C23.3782 8.12926 23.7248 8.23295 24.1225 8.23295C24.3839 8.23295 24.6211 8.1875 24.8342 8.09659C25.0472 8.00568 25.2276 7.875 25.3754 7.70455C25.5231 7.53409 25.6282 7.32955 25.6907 7.09091H26.6964C26.6396 7.47727 26.4989 7.82528 26.2745 8.13494C26.0529 8.44176 25.7589 8.68608 25.3924 8.8679C25.0288 9.04688 24.6055 9.13636 24.1225 9.13636ZM29.1722 5.0625V9H28.1665V0.272727H29.1722V3.47727H29.2575C29.4109 3.1392 29.641 2.87074 29.9478 2.67188C30.2575 2.47017 30.6694 2.36932 31.1836 2.36932C31.6296 2.36932 32.0202 2.45881 32.3555 2.63778C32.6907 2.81392 32.9506 3.08523 33.1353 3.4517C33.3228 3.81534 33.4165 4.27841 33.4165 4.84091V9H32.4109V4.90909C32.4109 4.3892 32.2759 3.98722 32.006 3.70312C31.739 3.41619 31.3683 3.27273 30.8938 3.27273C30.5643 3.27273 30.2688 3.34233 30.0075 3.48153C29.7489 3.62074 29.5444 3.82386 29.3938 4.09091C29.2461 4.35795 29.1722 4.68182 29.1722 5.0625Z" fill="black"/>
</svg>
