<svg xmlns="http://www.w3.org/2000/svg" xmlns:xlink="http://www.w3.org/1999/xlink" viewBox="0 0 247.52 90.06"><defs><linearGradient id="linear-gradient" x1="88.43" y1="-70.25" x2="88.43" y2="-6.32" gradientTransform="translate(-11.08 95.75) rotate(-16.84)" gradientUnits="userSpaceOnUse"><stop offset="0.08" stop-color="#f96f26"/><stop offset="1" stop-color="#ef2787"/></linearGradient><linearGradient id="linear-gradient-2" x1="90.05" y1="-70.15" x2="90.05" y2="-7.7" xlink:href="#linear-gradient"/></defs><g id="Layer_2" data-name="Layer 2"><g id="Layer_1-2" data-name="Layer 1"><polygon points="31.09 83.24 29.01 83.24 14.72 40.87 0 40.87 0 89.27 6.82 89.27 6.82 46.91 9.19 46.91 23.48 89.27 37.91 89.27 37.91 40.87 31.09 40.87 31.09 83.24" style="fill:#231236"/><path d="M116.68,40.87,103.83,89.28h7l3-11.06h21.11l2.93,11.06h7L131.9,40.87Zm-1.35,31.31,6.73-25.42h4.39l6.83,25.42Z" style="fill:#231236"/><polygon points="88.75 71.91 93.67 77.77 100.35 75.75 95.43 69.89 88.75 71.91" style="fill:#231236"/><path d="M175.5,40.16q-8.55,0-12.78,2.62a11.81,11.81,0,0,0-5.46,6.78A38.39,38.39,0,0,0,156,60.19v9.48a41.16,41.16,0,0,0,1.18,10.88,11.73,11.73,0,0,0,5.5,6.86q4.31,2.66,13.07,2.65a49.18,49.18,0,0,0,7.32-.54q3.58-.54,8.33-1.47l-.21-5.53A107.53,107.53,0,0,1,176.07,84c-4.16,0-7.18-.58-9-1.72a7.12,7.12,0,0,1-3.45-4.46,37.42,37.42,0,0,1-.65-8V60a36.27,36.27,0,0,1,.61-7.5A7.26,7.26,0,0,1,166.92,48q2.76-1.78,8.72-1.79a25.58,25.58,0,0,1,9.7,1.58V65.86h6.32V43.1A30.39,30.39,0,0,0,184,41,51.48,51.48,0,0,0,175.5,40.16Z" style="fill:#231236"/><polygon points="240.7 40.87 240.7 65.29 217 65.29 217 40.87 210.11 40.87 210.11 89.27 217 89.27 217 71.32 240.7 71.32 240.7 89.27 247.52 89.27 247.52 40.87 240.7 40.87" style="fill:#231236"/><path d="M77.41,0,70.75,2h0L55.16,6.74l1.61,5.32L70.14,8,67.49,34.42l-4.41,1.33-5.45-6h0l-4.13-4.55h0l0,0-6.66,2,0,0h0L36.43,30.39,38,35.71l12.64-3.83,8,9.69c.79.92,1.72,5.74,2,6.93l0,.07a4.72,4.72,0,0,1,.09,1.59L55.66,89.28h6.45L66.6,60.33a6,6,0,0,1-1.48-2.48,6.14,6.14,0,1,1,11.75-3.56,6.07,6.07,0,0,1,0,3.48L82.16,64l-10.8,3.27L73,72.62l19.74-6-16.51-21a4.73,4.73,0,0,1-.64-1.08l0-.09a32.77,32.77,0,0,1-1-7.91L77,5.94h0L77.42,0h0Z" style="fill:url(#linear-gradient)"/><path d="M72.23,60.15a4.27,4.27,0,0,0,3-4.35,4,4,0,0,0-.17-1A4.27,4.27,0,0,0,69.76,52a4.33,4.33,0,0,0-1.9,1.23h0v0a4.25,4.25,0,0,0-.89,4,2.44,2.44,0,0,0,.14.34A4.25,4.25,0,0,0,72.23,60.15Z" style="fill:url(#linear-gradient-2)"/></g></g></svg>