<svg xmlns="http://www.w3.org/2000/svg" width="8460" height="4531" fill="none"><path fill="#ECDFB8" stroke="#000" stroke-width="17" d="M8.5 8.5h8443v4483H8.5z"/><circle cx="4230" cy="2281" r="224.5" stroke="#000" stroke-width="17"/><circle cx="4230" cy="2281" r="537.5" stroke="#000" stroke-width="17"/><path stroke="#000" stroke-width="16" d="M4233 .004 4231 4531"/><path stroke="#000" stroke-width="17" d="M2539.5 0v288M2539.5 4243v288M5925.5 4243v288M5925.5 0v288M7 328.5h1271M7 4252.5h1271M1277 328c429.5 142.333 1298.4 725.9 1338 1921.5M1277 4254c429.5-148.44 1298.4-757.07 1338-2004M8453 337.5H7182M8453 4261.5H7182M7183 337c-429.5 142.333-1298.4 725.9-1338 1921.5M7183 4263c-429.5-148.44-1298.4-757.07-1338-2004"/></svg>