<svg xmlns="http://www.w3.org/2000/svg" width="32400" height="14400" fill="none"><path stroke="#fff" stroke-width="40" d="M20 20h32360v14360H20z"/><mask id="a" fill="#fff"><path d="M0 0h2700v14400H0V0Z"/></mask><path fill="#316722" d="M0 0h2700v14400H0V0Z"/><path fill="#fff" d="M0 0v-40h-40V0H0Zm2700 0h20v-40h-20V0Zm0 14400v40h20v-40h-20Zm-2700 0h-40v40H0v-40ZM0 40h2700v-80H0v80ZM2680 0v14400h40V0h-40Zm20 14360H0v80h2700v-80Zm-2660 40V0h-80v14400h80Z" mask="url(#a)"/><mask id="b" fill="#fff"><path d="M2700 0h1350v14400H2700V0Z"/></mask><path fill="#316722" d="M2700 0h1350v14400H2700V0Z"/><path fill="#fff" d="M2700 0v-40h-20V0h20Zm1350 0h20v-40h-20V0Zm0 14400v40h20v-40h-20Zm-1350 0h-20v40h20v-40Zm0-14360h1350v-80H2700v80ZM4030 0v14400h40V0h-40Zm20 14360H2700v80h1350v-80Zm-1330 40V0h-40v14400h40Z" mask="url(#b)"/><mask id="c" fill="#fff"><path d="M4050 0h1350v14400H4050V0Z"/></mask><path fill="#316722" d="M4050 0h1350v14400H4050V0Z"/><path fill="#fff" d="M4050 0v-40h-20V0h20Zm1350 0h20v-40h-20V0Zm0 14400v40h20v-40h-20Zm-1350 0h-20v40h20v-40Zm0-14360h1350v-80H4050v80ZM5380 0v14400h40V0h-40Zm20 14360H4050v80h1350v-80Zm-1330 40V0h-40v14400h40Z" mask="url(#c)"/><mask id="d" fill="#fff"><path d="M5400 0h1350v14400H5400V0Z"/></mask><path fill="#316722" d="M5400 0h1350v14400H5400V0Z"/><path fill="#fff" d="M5400 0v-40h-20V0h20Zm1350 0h20v-40h-20V0Zm0 14400v40h20v-40h-20Zm-1350 0h-20v40h20v-40Zm0-14360h1350v-80H5400v80ZM6730 0v14400h40V0h-40Zm20 14360H5400v80h1350v-80Zm-1330 40V0h-40v14400h40Z" mask="url(#d)"/><mask id="e" fill="#fff"><path d="M6750 0h1350v14400H6750V0Z"/></mask><path fill="#316722" d="M6750 0h1350v14400H6750V0Z"/><path fill="#fff" d="M6750 0v-40h-20V0h20Zm1350 0h20v-40h-20V0Zm0 14400v40h20v-40h-20Zm-1350 0h-20v40h20v-40Zm0-14360h1350v-80H6750v80ZM8080 0v14400h40V0h-40Zm20 14360H6750v80h1350v-80Zm-1330 40V0h-40v14400h40Z" mask="url(#e)"/><mask id="f" fill="#fff"><path d="M18900 0h1350v14400h-1350V0Z"/></mask><path fill="#316722" d="M18900 0h1350v14400h-1350V0Z"/><path fill="#fff" d="M18900 0v-40h-20V0h20Zm1350 0h20v-40h-20V0Zm0 14400v40h20v-40h-20Zm-1350 0h-20v40h20v-40Zm0-14360h1350v-80h-1350v80Zm1330-40v14400h40V0h-40Zm20 14360h-1350v80h1350v-80Zm-1330 40V0h-40v14400h40Z" mask="url(#f)"/><mask id="g" fill="#fff"><path d="M20250 0h1350v14400h-1350V0Z"/></mask><path fill="#316722" d="M20250 0h1350v14400h-1350V0Z"/><path fill="#fff" d="M20250 0v-40h-20V0h20Zm1350 0h20v-40h-20V0Zm0 14400v40h20v-40h-20Zm-1350 0h-20v40h20v-40Zm0-14360h1350v-80h-1350v80Zm1330-40v14400h40V0h-40Zm20 14360h-1350v80h1350v-80Zm-1330 40V0h-40v14400h40Z" mask="url(#g)"/><mask id="h" fill="#fff"><path d="M21600 0h1350v14400h-1350V0Z"/></mask><path fill="#316722" d="M21600 0h1350v14400h-1350V0Z"/><path fill="#fff" d="M21600 0v-40h-20V0h20Zm1350 0h20v-40h-20V0Zm0 14400v40h20v-40h-20Zm-1350 0h-20v40h20v-40Zm0-14360h1350v-80h-1350v80Zm1330-40v14400h40V0h-40Zm20 14360h-1350v80h1350v-80Zm-1330 40V0h-40v14400h40Z" mask="url(#h)"/><mask id="i" fill="#fff"><path d="M22950 0h1350v14400h-1350V0Z"/></mask><path fill="#316722" d="M22950 0h1350v14400h-1350V0Z"/><path fill="#fff" d="M22950 0v-40h-20V0h20Zm1350 0h20v-40h-20V0Zm0 14400v40h20v-40h-20Zm-1350 0h-20v40h20v-40Zm0-14360h1350v-80h-1350v80Zm1330-40v14400h40V0h-40Zm20 14360h-1350v80h1350v-80Zm-1330 40V0h-40v14400h40Z" mask="url(#i)"/><mask id="j" fill="#fff"><path d="M24300 0h1350v14400h-1350V0Z"/></mask><path fill="#316722" d="M24300 0h1350v14400h-1350V0Z"/><path fill="#fff" d="M24300 0v-40h-20V0h20Zm1350 0h20v-40h-20V0Zm0 14400v40h20v-40h-20Zm-1350 0h-20v40h20v-40Zm0-14360h1350v-80h-1350v80Zm1330-40v14400h40V0h-40Zm20 14360h-1350v80h1350v-80Zm-1330 40V0h-40v14400h40Z" mask="url(#j)"/><mask id="k" fill="#fff"><path d="M25650 0h1350v14400h-1350V0Z"/></mask><path fill="#316722" d="M25650 0h1350v14400h-1350V0Z"/><path fill="#fff" d="M25650 0v-40h-20V0h20Zm1350 0h20v-40h-20V0Zm0 14400v40h20v-40h-20Zm-1350 0h-20v40h20v-40Zm0-14360h1350v-80h-1350v80Zm1330-40v14400h40V0h-40Zm20 14360h-1350v80h1350v-80Zm-1330 40V0h-40v14400h40Z" mask="url(#k)"/><mask id="l" fill="#fff"><path d="M27000 0h1350v14400h-1350V0Z"/></mask><path fill="#316722" d="M27000 0h1350v14400h-1350V0Z"/><path fill="#fff" d="M27000 0v-40h-20V0h20Zm1350 0h20v-40h-20V0Zm0 14400v40h20v-40h-20Zm-1350 0h-20v40h20v-40Zm0-14360h1350v-80h-1350v80Zm1330-40v14400h40V0h-40Zm20 14360h-1350v80h1350v-80Zm-1330 40V0h-40v14400h40Z" mask="url(#l)"/><mask id="m" fill="#fff"><path d="M28350 0h1350v14400h-1350V0Z"/></mask><path fill="#316722" d="M28350 0h1350v14400h-1350V0Z"/><path fill="#fff" d="M28350 0v-40h-20V0h20Zm1350 0h20v-40h-20V0Zm0 14400v40h20v-40h-20Zm-1350 0h-20v40h20v-40Zm0-14360h1350v-80h-1350v80Zm1330-40v14400h40V0h-40Zm20 14360h-1350v80h1350v-80Zm-1330 40V0h-40v14400h40Z" mask="url(#m)"/><mask id="n" fill="#fff"><path d="M13500 0h1350v14400h-1350V0Z"/></mask><path fill="#316722" d="M13500 0h1350v14400h-1350V0Z"/><path fill="#fff" d="M13500 0v-40h-20V0h20Zm1350 0h20v-40h-20V0Zm0 14400v40h20v-40h-20Zm-1350 0h-20v40h20v-40Zm0-14360h1350v-80h-1350v80Zm1330-40v14400h40V0h-40Zm20 14360h-1350v80h1350v-80Zm-1330 40V0h-40v14400h40Z" mask="url(#n)"/><mask id="o" fill="#fff"><path d="M14850 0h1350v14400h-1350V0Z"/></mask><path fill="#316722" d="M14850 0h1350v14400h-1350V0Z"/><path fill="#fff" d="M14850 0v-40h-20V0h20Zm1350 0h20v-40h-20V0Zm0 14400v40h20v-40h-20Zm-1350 0h-20v40h20v-40Zm0-14360h1350v-80h-1350v80Zm1330-40v14400h40V0h-40Zm20 14360h-1350v80h1350v-80Zm-1330 40V0h-40v14400h40Z" mask="url(#o)"/><mask id="p" fill="#fff"><path d="M16200 0h1350v14400h-1350V0Z"/></mask><path fill="#316722" d="M16200 0h1350v14400h-1350V0Z"/><path fill="#fff" d="M16200 0v-40h-20V0h20Zm1350 0h20v-40h-20V0Zm0 14400v40h20v-40h-20Zm-1350 0h-20v40h20v-40Zm0-14360h1350v-80h-1350v80Zm1330-40v14400h40V0h-40Zm20 14360h-1350v80h1350v-80Zm-1330 40V0h-40v14400h40Z" mask="url(#p)"/><mask id="q" fill="#fff"><path d="M17550 0h1350v14400h-1350V0Z"/></mask><path fill="#316722" d="M17550 0h1350v14400h-1350V0Z"/><path fill="#fff" d="M17550 0v-40h-20V0h20Zm1350 0h20v-40h-20V0Zm0 14400v40h20v-40h-20Zm-1350 0h-20v40h20v-40Zm0-14360h1350v-80h-1350v80Zm1330-40v14400h40V0h-40Zm20 14360h-1350v80h1350v-80Zm-1330 40V0h-40v14400h40Z" mask="url(#q)"/><mask id="r" fill="#fff"><path d="M8100 0h1350v14400H8100V0Z"/></mask><path fill="#316722" d="M8100 0h1350v14400H8100V0Z"/><path fill="#fff" d="M8100 0v-40h-20V0h20Zm1350 0h20v-40h-20V0Zm0 14400v40h20v-40h-20Zm-1350 0h-20v40h20v-40Zm0-14360h1350v-80H8100v80ZM9430 0v14400h40V0h-40Zm20 14360H8100v80h1350v-80Zm-1330 40V0h-40v14400h40Z" mask="url(#r)"/><mask id="s" fill="#fff"><path d="M9450 0h1350v14400H9450V0Z"/></mask><path fill="#316722" d="M9450 0h1350v14400H9450V0Z"/><path fill="#fff" d="M9450 0v-40h-20V0h20Zm1350 0h20v-40h-20V0Zm0 14400v40h20v-40h-20Zm-1350 0h-20v40h20v-40Zm0-14360h1350v-80H9450v80Zm1330-40v14400h40V0h-40Zm20 14360H9450v80h1350v-80Zm-1330 40V0h-40v14400h40Z" mask="url(#s)"/><mask id="t" fill="#fff"><path d="M10800 0h1350v14400h-1350V0Z"/></mask><path fill="#316722" d="M10800 0h1350v14400h-1350V0Z"/><path fill="#fff" d="M10800 0v-40h-20V0h20Zm1350 0h20v-40h-20V0Zm0 14400v40h20v-40h-20Zm-1350 0h-20v40h20v-40Zm0-14360h1350v-80h-1350v80Zm1330-40v14400h40V0h-40Zm20 14360h-1350v80h1350v-80Zm-1330 40V0h-40v14400h40Z" mask="url(#t)"/><mask id="u" fill="#fff"><path d="M12150 0h1350v14400h-1350V0Z"/></mask><path fill="#316722" d="M12150 0h1350v14400h-1350V0Z"/><path fill="#fff" d="M12150 0v-40h-20V0h20Zm1350 0h20v-40h-20V0Zm0 14400v40h20v-40h-20Zm-1350 0h-20v40h20v-40Zm0-14360h1350v-80h-1350v80Zm1330-40v14400h40V0h-40Zm20 14360h-1350v80h1350v-80Zm-1330 40V0h-40v14400h40Z" mask="url(#u)"/><mask id="v" fill="#fff"><path d="M32400 14400h-2700V0h2700v14400Z"/></mask><path fill="#316722" d="M32400 14400h-2700V0h2700v14400Z"/><path fill="#fff" d="M32400 14400v40h40v-40h-40Zm-2700 0h-20v40h20v-40Zm0-14400v-40h-20V0h20Zm2700 0h40v-40h-40V0Zm0 14360h-2700v80h2700v-80Zm-2680 40V0h-40v14400h40ZM29700 40h2700v-80h-2700v80Zm2660-40v14400h80V0h-80Z" mask="url(#v)"/><mask id="w" fill="#fff"><path d="M2700 6367h27000v1665H2700V6367Z"/></mask><path fill="#fff" d="M2700 6407h27000v-80H2700v80Zm27000 1585H2700v80h27000v-80Z" mask="url(#w)"/><path fill="#fff" d="M5211.36 2689.73V3417h-153.77v-581.32h-4.26l-166.55 104.4v-136.36l180.04-113.99h144.54Zm598 743.25c-61.08-.24-113.63-15.27-157.67-45.1-43.79-29.83-77.53-73.03-101.2-129.62-23.44-56.58-35.04-124.64-34.81-204.19 0-79.3 11.72-146.89 35.16-202.77 23.67-55.87 57.41-98.36 101.21-127.48 44.03-29.36 96.47-44.04 157.31-44.04 60.85 0 113.17 14.68 156.96 44.04 44.04 29.35 77.89 71.97 101.57 127.84 23.67 55.63 35.39 123.11 35.15 202.41 0 79.79-11.84 147.97-35.51 204.55-23.44 56.58-57.05 99.79-100.85 129.62s-96.24 44.74-157.32 44.74Zm0-127.49c41.67 0 74.93-20.95 99.79-62.85 24.86-41.9 37.17-104.76 36.93-188.57 0-55.16-5.68-101.09-17.04-137.78-11.13-36.7-26.99-64.28-47.59-82.74-20.36-18.47-44.39-27.7-72.09-27.7-41.43 0-74.57 20.71-99.43 62.14-24.86 41.43-37.4 103.46-37.64 186.08 0 55.88 5.56 102.51 16.69 139.92 11.36 37.17 27.34 65.1 47.94 83.81 20.6 18.46 44.74 27.69 72.44 27.69ZM7428.95 3417v-110.8l258.88-239.7c22.01-21.3 40.48-40.48 55.39-57.53 15.16-17.04 26.64-33.73 34.45-50.07 7.81-16.57 11.72-34.44 11.72-53.62 0-21.31-4.85-39.65-14.56-55.04-9.71-15.63-22.96-27.58-39.77-35.87-16.81-8.52-35.87-12.78-57.18-12.78-22.25 0-41.66 4.5-58.24 13.49-16.57 9-29.35 21.9-38.35 38.71-8.99 16.81-13.49 36.81-13.49 60.01h-145.95c0-47.58 10.77-88.89 32.31-123.93 21.55-35.04 51.73-62.15 90.56-81.32 38.82-19.18 83.57-28.77 134.23-28.77 52.08 0 97.42 9.24 136.01 27.7 38.82 18.23 69.01 43.56 90.55 76 21.54 32.43 32.32 69.6 32.32 111.5 0 27.47-5.45 54.57-16.34 81.32-10.65 26.76-29.71 56.47-57.17 89.14-27.46 32.43-66.17 71.38-116.12 116.83l-106.18 104.05v4.97h305.39V3417h-518.46Zm1055.04 15.98c-61.08-.24-113.64-15.27-157.67-45.1-43.8-29.83-77.54-73.03-101.21-129.62-23.44-56.58-35.04-124.64-34.8-204.19 0-79.3 11.72-146.89 35.16-202.77 23.67-55.87 57.41-98.36 101.2-127.48 44.04-29.36 96.48-44.04 157.32-44.04 60.84 0 113.16 14.68 156.96 44.04 44.03 29.35 77.89 71.97 101.56 127.84 23.67 55.63 35.39 123.11 35.16 202.41 0 79.79-11.84 147.97-35.51 204.55-23.44 56.58-57.06 99.79-100.86 129.62-43.79 29.83-96.23 44.74-157.31 44.74Zm0-127.49c41.66 0 74.93-20.95 99.78-62.85 24.86-41.9 37.17-104.76 36.94-188.57 0-55.16-5.69-101.09-17.05-137.78-11.13-36.7-26.99-64.28-47.58-82.74-20.36-18.47-44.39-27.7-72.09-27.7-41.43 0-74.58 20.71-99.43 62.14-24.86 41.43-37.41 103.46-37.65 186.08 0 55.88 5.57 102.51 16.69 139.92 11.37 37.17 27.35 65.1 47.94 83.81 20.6 18.46 44.75 27.69 72.45 27.69ZM10383.8 3426.94c-53.1 0-100.3-9.11-141.7-27.34-41.2-18.47-73.8-43.8-97.7-75.99-23.7-32.44-35.8-69.84-36.6-112.22h154.9c.9 17.75 6.7 33.38 17.4 46.87 10.9 13.26 25.3 23.56 43.3 30.9 18 7.34 38.2 11.01 60.7 11.01 23.5 0 44.2-4.15 62.2-12.43 18-8.29 32-19.77 42.2-34.45 10.2-14.68 15.3-31.6 15.3-50.78 0-19.41-5.4-36.58-16.3-51.49-10.7-15.15-26.1-26.99-46.2-35.51-19.9-8.52-43.6-12.79-71-12.79h-67.9V2989.8h67.9c23.2 0 43.7-4.03 61.4-12.08 18-8.04 32-19.17 41.9-33.38 10-14.44 14.9-31.25 14.9-50.42 0-18.23-4.4-34.21-13.1-47.94-8.5-13.97-20.6-24.86-36.2-32.67-15.4-7.82-33.4-11.72-54-11.72-20.8 0-39.9 3.79-57.2 11.36-17.3 7.34-31.1 17.88-41.5 31.61-10.4 13.73-16 29.83-16.7 48.29h-147.4c.7-41.9 12.7-78.83 35.9-110.79 23.2-31.96 54.4-56.94 93.7-74.93 39.6-18.23 84.2-27.35 133.9-27.35 50.2 0 94.1 9.12 131.7 27.35 37.7 18.23 66.9 42.85 87.8 73.86 21 30.78 31.4 65.34 31.2 103.69.2 40.72-12.4 74.7-38 101.92-25.3 27.23-58.3 44.51-99.1 51.85v5.68c53.5 6.87 94.3 25.45 122.2 55.75 28.2 30.07 42.1 67.71 41.9 112.93.2 41.43-11.7 78.24-35.9 110.44-23.9 32.2-56.9 57.53-99 75.99-42.2 18.47-90.5 27.7-144.9 27.7Zm815.5 6.04c-61.1-.24-113.7-15.27-157.7-45.1-43.8-29.83-77.5-73.03-101.2-129.62-23.4-56.58-35-124.64-34.8-204.19 0-79.3 11.7-146.89 35.2-202.77 23.6-55.87 57.4-98.36 101.2-127.48 44-29.36 96.4-44.04 157.3-44.04 60.8 0 113.1 14.68 156.9 44.04 44.1 29.35 77.9 71.97 101.6 127.84 23.7 55.63 35.4 123.11 35.2 202.41 0 79.79-11.9 147.97-35.5 204.55-23.5 56.58-57.1 99.79-100.9 129.62-43.8 29.83-96.2 44.74-157.3 44.74Zm0-127.49c41.7 0 74.9-20.95 99.8-62.85 24.8-41.9 37.1-104.76 36.9-188.57 0-55.16-5.7-101.09-17-137.78-11.2-36.7-27-64.28-47.6-82.74-20.4-18.47-44.4-27.7-72.1-27.7-41.4 0-74.6 20.71-99.4 62.14-24.9 41.43-37.5 103.46-37.7 186.08 0 55.88 5.6 102.51 16.7 139.92 11.4 37.17 27.3 65.1 47.9 83.81 20.6 18.46 44.8 27.69 72.5 27.69ZM12793.9 3289.16v-121.09l303.7-478.34h104.4v167.61h-61.8l-191.4 302.91v5.68h431.4v123.23h-586.3ZM13143 3417v-164.77l2.9-53.62v-508.88h144.1V3417h-147Zm764.8 15.98c-61-.24-113.6-15.27-157.6-45.1-43.8-29.83-77.6-73.03-101.2-129.62-23.5-56.58-35.1-124.64-34.8-204.19 0-79.3 11.7-146.89 35.1-202.77 23.7-55.87 57.4-98.36 101.2-127.48 44.1-29.36 96.5-44.04 157.3-44.04 60.9 0 113.2 14.68 157 44.04 44 29.35 77.9 71.97 101.6 127.84 23.6 55.63 35.4 123.11 35.1 202.41 0 79.79-11.8 147.97-35.5 204.55-23.4 56.58-57 99.79-100.8 129.62s-96.3 44.74-157.4 44.74Zm0-127.49c41.7 0 75-20.95 99.8-62.85 24.9-41.9 37.2-104.76 37-188.57 0-55.16-5.7-101.09-17.1-137.78-11.1-36.7-27-64.28-47.6-82.74-20.3-18.47-44.4-27.7-72.1-27.7-41.4 0-74.5 20.71-99.4 62.14-24.9 41.43-37.4 103.46-37.6 186.08 0 55.88 5.5 102.51 16.7 139.92 11.3 37.17 27.3 65.1 47.9 83.81 20.6 18.46 44.7 27.69 72.4 27.69ZM15787.6 3426.94c-50.2 0-95-9.23-134.3-27.7-39-18.46-70-43.91-93-76.35-23-32.43-34.9-69.6-35.9-111.5h149.2c1.6 28.17 13.5 51.02 35.5 68.54 22 17.52 48.2 26.27 78.5 26.27 24.1 0 45.4-5.32 63.9-15.98 18.7-10.89 33.3-25.92 43.7-45.1 10.6-19.41 16-41.66 16-66.76 0-25.56-5.5-48.06-16.4-67.47-10.6-19.41-25.4-34.56-44.4-45.45-18.9-10.89-40.6-16.46-65-16.69-21.3 0-42 4.38-62.1 13.14-19.9 8.76-35.4 20.71-46.5 35.86l-136.7-24.5 34.4-383.52h444.6v125.71h-317.8l-18.8 182.17h4.2c12.8-17.99 32.1-32.91 57.9-44.74 25.8-11.84 54.7-17.76 86.7-17.76 43.8 0 82.8 10.3 117.1 30.9 34.4 20.59 61.5 48.88 81.4 84.87 19.8 35.75 29.7 76.94 29.4 123.58.3 49-11.1 92.56-34.1 130.68-22.7 37.88-54.5 67.71-95.5 89.49-40.7 21.54-88 32.31-142 32.31Zm804 6.04c-61-.24-113.6-15.27-157.6-45.1-43.8-29.83-77.6-73.03-101.2-129.62-23.5-56.58-35.1-124.64-34.8-204.19 0-79.3 11.7-146.89 35.1-202.77 23.7-55.87 57.4-98.36 101.2-127.48 44.1-29.36 96.5-44.04 157.3-44.04 60.9 0 113.2 14.68 157 44.04 44 29.35 77.9 71.97 101.6 127.84 23.6 55.63 35.4 123.11 35.1 202.41 0 79.79-11.8 147.97-35.5 204.55-23.4 56.58-57.1 99.79-100.8 129.62-43.8 29.83-96.3 44.74-157.4 44.74Zm0-127.49c41.7 0 75-20.95 99.8-62.85 24.9-41.9 37.2-104.76 37-188.57 0-55.16-5.7-101.09-17.1-137.78-11.1-36.7-27-64.28-47.6-82.74-20.3-18.47-44.4-27.7-72.1-27.7-41.4 0-74.5 20.71-99.4 62.14-24.9 41.43-37.4 103.46-37.6 186.08 0 55.88 5.5 102.51 16.7 139.92 11.3 37.17 27.3 65.1 47.9 83.81 20.6 18.46 44.7 27.69 72.4 27.69ZM18549.1 3426.94c-37.4-.23-73.5-6.51-108.3-18.82-34.6-12.31-65.6-32.31-93.1-60.01-27.4-27.7-49.2-64.4-65.3-110.09-15.9-45.69-23.8-101.8-23.8-168.32.2-61.08 7.2-115.65 20.9-163.71 14-48.29 33.9-89.25 59.7-122.87 26-33.62 57.2-59.18 93.4-76.7 36.2-17.76 76.8-26.64 121.8-26.64 48.5 0 91.4 9.47 128.5 28.41 37.2 18.71 67 44.16 89.5 76.35 22.8 32.2 36.5 68.3 41.2 108.31H18662c-5.9-25.33-18.4-45.22-37.3-59.66-18.9-14.44-42.4-21.66-70.3-21.66-47.4 0-83.3 20.6-108 61.79-24.3 41.19-36.8 97.18-37.2 167.97h4.9c10.9-21.54 25.6-39.89 44.1-55.04 18.7-15.39 39.9-27.11 63.5-35.16 23.9-8.29 49.1-12.43 75.7-12.43 43.1 0 81.4 10.18 115 30.54 33.6 20.12 60.2 47.82 79.6 83.1 19.4 35.27 29.1 75.64 29.1 121.09 0 49.24-11.5 93.04-34.5 131.39-22.7 38.36-54.5 68.42-95.5 90.2-40.7 21.55-88.1 32.2-142 31.96Zm-.7-120.74c23.6 0 44.8-5.68 63.5-17.04 18.7-11.36 33.4-26.75 44.1-46.17 10.6-19.41 15.9-41.19 15.9-65.34 0-24.14-5.3-45.81-15.9-64.98-10.5-19.18-24.9-34.45-43.4-45.81-18.4-11.37-39.5-17.05-63.2-17.05-17.7 0-34.2 3.32-49.3 9.95-15 6.62-28.1 15.86-39.5 27.69-11.1 11.84-19.8 25.57-26.2 41.2-6.4 15.39-9.6 31.84-9.6 49.36 0 23.44 5.3 44.86 16 64.27 10.8 19.42 25.5 34.92 44 46.52 18.7 11.6 39.9 17.4 63.6 17.4Zm806.9 126.78c-61.1-.24-113.7-15.27-157.7-45.1-43.8-29.83-77.5-73.03-101.2-129.62-23.5-56.58-35.1-124.64-34.8-204.19 0-79.3 11.7-146.89 35.1-202.77 23.7-55.87 57.4-98.36 101.2-127.48 44.1-29.36 96.5-44.04 157.4-44.04 60.8 0 113.1 14.68 156.9 44.04 44.1 29.35 77.9 71.97 101.6 127.84 23.7 55.63 35.4 123.11 35.1 202.41 0 79.79-11.8 147.97-35.5 204.55-23.4 56.58-57 99.79-100.8 129.62s-96.3 44.74-157.3 44.74Zm0-127.49c41.6 0 74.9-20.95 99.7-62.85 24.9-41.9 37.2-104.76 37-188.57 0-55.16-5.7-101.09-17.1-137.78-11.1-36.7-27-64.28-47.6-82.74-20.3-18.47-44.3-27.7-72-27.7-41.5 0-74.6 20.71-99.5 62.14-24.8 41.43-37.4 103.46-37.6 186.08 0 55.88 5.6 102.51 16.7 139.92 11.3 37.17 27.3 65.1 47.9 83.81 20.6 18.46 44.8 27.69 72.5 27.69ZM21043.7 3417l301.5-596.59v-4.97H20994v-125.71h510.3v127.48L21202.4 3417h-158.7Zm975.5 15.98c-61.1-.24-113.6-15.27-157.7-45.1-43.8-29.83-77.5-73.03-101.2-129.62-23.4-56.58-35-124.64-34.8-204.19 0-79.3 11.7-146.89 35.2-202.77 23.7-55.87 57.4-98.36 101.2-127.48 44-29.36 96.5-44.04 157.3-44.04 60.8 0 113.2 14.68 157 44.04 44 29.35 77.9 71.97 101.5 127.84 23.7 55.63 35.4 123.11 35.2 202.41 0 79.79-11.9 147.97-35.5 204.55-23.5 56.58-57.1 99.79-100.9 129.62-43.8 29.83-96.2 44.74-157.3 44.74Zm0-127.49c41.7 0 74.9-20.95 99.8-62.85 24.9-41.9 37.2-104.76 36.9-188.57 0-55.16-5.7-101.09-17-137.78-11.1-36.7-27-64.28-47.6-82.74-20.4-18.47-44.4-27.7-72.1-27.7-41.4 0-74.6 20.71-99.4 62.14-24.9 41.43-37.4 103.46-37.7 186.08 0 55.88 5.6 102.51 16.7 139.92 11.4 37.17 27.4 65.1 48 83.81 20.6 18.46 44.7 27.69 72.4 27.69ZM23885.3 3426.94c-54.7 0-103.4-8.87-146-26.63-42.4-17.99-75.6-42.5-99.8-73.51-24.1-31.01-36.2-66.17-36.2-105.47 0-30.3 6.9-58.12 20.6-83.45 14-25.57 32.9-46.76 56.8-63.56 23.9-17.05 50.7-27.94 80.3-32.68v-4.97c-38.9-7.81-70.3-26.63-94.5-56.46-24.1-30.07-36.2-64.99-36.2-104.76 0-37.64 11-71.14 33-100.5 22-29.59 52.2-52.79 90.6-69.6 38.6-17.04 82.3-25.57 131.4-25.57 49 0 92.6 8.53 131 25.57 38.6 17.05 68.9 40.37 90.9 69.96 22 29.36 33.1 62.74 33.4 100.14-.3 40.01-12.6 74.93-36.9 104.76-24.4 29.83-55.7 48.65-93.8 56.46v4.97c29.1 4.74 55.5 15.63 79.2 32.68 23.9 16.8 42.8 37.99 56.8 63.56 14.2 25.33 21.4 53.15 21.7 83.45-.3 39.3-12.5 74.46-36.6 105.47-24.2 31.01-57.5 55.52-100.1 73.51-42.4 17.76-91 26.63-145.6 26.63Zm0-112.92c24.3 0 45.6-4.38 63.9-13.14 18.2-9 32.4-21.31 42.6-36.93 10.4-15.87 15.6-34.09 15.6-54.69 0-21.07-5.3-39.66-16-55.75-10.6-16.34-25.1-29.12-43.3-38.36-18.2-9.47-39.2-14.2-62.8-14.2-23.5 0-44.4 4.73-62.9 14.2-18.5 9.24-33 22.02-43.7 38.36-10.4 16.09-15.6 34.68-15.6 55.75 0 20.6 5.1 38.82 15.3 54.69 10.1 15.62 24.5 27.93 42.9 36.93 18.5 8.76 39.8 13.14 64 13.14Zm0-324.93c20.3 0 38.4-4.14 54.3-12.43 15.8-8.29 28.3-19.77 37.3-34.45 9-14.67 13.5-31.6 13.5-50.78 0-18.94-4.5-35.51-13.5-49.71-9-14.45-21.3-25.69-37-33.74-15.6-8.29-33.8-12.43-54.6-12.43-20.6 0-38.9 4.14-54.7 12.43-15.9 8.05-28.3 19.29-37.3 33.74-8.8 14.2-13.2 30.77-13.2 49.71 0 19.18 4.5 36.11 13.5 50.78 9 14.68 21.5 26.16 37.3 34.45 15.9 8.29 34 12.43 54.4 12.43Zm814.9 443.89c-61-.24-113.6-15.27-157.6-45.1-43.8-29.83-77.6-73.03-101.2-129.62-23.5-56.58-35.1-124.64-34.8-204.19 0-79.3 11.7-146.89 35.1-202.77 23.7-55.87 57.4-98.36 101.2-127.48 44.1-29.36 96.5-44.04 157.3-44.04 60.9 0 113.2 14.68 157 44.04 44 29.35 77.9 71.97 101.6 127.84 23.6 55.63 35.4 123.11 35.1 202.41 0 79.79-11.8 147.97-35.5 204.55-23.4 56.58-57 99.79-100.8 129.62s-96.3 44.74-157.4 44.74Zm0-127.49c41.7 0 75-20.95 99.8-62.85 24.9-41.9 37.2-104.76 37-188.57 0-55.16-5.7-101.09-17.1-137.78-11.1-36.7-27-64.28-47.6-82.74-20.3-18.47-44.4-27.7-72.1-27.7-41.4 0-74.5 20.71-99.4 62.14-24.9 41.43-37.4 103.46-37.6 186.08 0 55.88 5.5 102.51 16.7 139.92 11.3 37.17 27.3 65.1 47.9 83.81 20.6 18.46 44.7 27.69 72.4 27.69ZM26558.1 2679.78c37.4 0 73.4 6.28 107.9 18.83 34.8 12.54 65.9 32.55 93.1 60.01 27.4 27.46 49.1 63.92 65 109.37 16.1 45.22 24.2 100.74 24.5 166.55 0 61.79-7 116.95-21 165.49-13.7 48.29-33.5 89.37-59.3 123.22-25.8 33.85-56.9 59.66-93.4 77.41-36.4 17.52-77.2 26.28-122.1 26.28-48.6 0-91.4-9.35-128.6-28.05-37.2-18.94-67.1-44.63-89.8-77.06-22.5-32.67-36.1-69.37-40.9-110.09h151.7c5.9 26.52 18.3 47.12 37.2 61.79 19 14.45 42.4 21.67 70.4 21.67 47.3 0 83.3-20.6 107.9-61.79 24.6-41.43 37.1-98.13 37.3-170.1h-5c-10.9 21.3-25.5 39.65-44 55.04-18.5 15.15-39.7 26.87-63.6 35.16-23.6 8.28-48.9 12.42-75.6 12.42-42.9 0-81.1-10.06-114.7-30.18-33.6-20.12-60.1-47.82-79.6-83.1-19.4-35.27-29.1-75.52-29.1-120.74-.2-48.76 11-92.21 33.8-130.32 22.7-38.12 54.4-67.95 95.1-89.49 41-21.78 88.6-32.55 142.8-32.32Zm1.1 120.74c-24 0-45.3 5.68-64 17.05-18.4 11.36-33.1 26.63-44 45.81-10.7 19.17-15.9 40.6-15.6 64.27 0 23.91 5.2 45.46 15.6 64.63 10.7 18.94 25.1 34.09 43.3 45.46 18.5 11.13 39.6 16.69 63.2 16.69 17.8 0 34.2-3.32 49.4-9.94 15.1-6.63 28.3-15.75 39.4-27.35 11.4-11.84 20.3-25.45 26.6-40.84 6.4-15.38 9.6-31.72 9.6-49-.2-22.97-5.6-44.04-16.3-63.21-10.7-19.18-25.3-34.57-44-46.17-18.7-11.6-39.8-17.4-63.2-17.4Zm821.1 632.46c-61.1-.24-113.7-15.27-157.7-45.1-43.8-29.83-77.5-73.03-101.2-129.62-23.5-56.58-35.1-124.64-34.8-204.19 0-79.3 11.7-146.89 35.1-202.77 23.7-55.87 57.4-98.36 101.2-127.48 44.1-29.36 96.5-44.04 157.4-44.04 60.8 0 113.1 14.68 156.9 44.04 44.1 29.35 77.9 71.97 101.6 127.84 23.7 55.63 35.4 123.11 35.1 202.41 0 79.79-11.8 147.97-35.5 204.55-23.4 56.58-57 99.79-100.8 129.62s-96.3 44.74-157.3 44.74Zm0-127.49c41.6 0 74.9-20.95 99.7-62.85 24.9-41.9 37.2-104.76 37-188.57 0-55.16-5.7-101.09-17.1-137.78-11.1-36.7-27-64.28-47.6-82.74-20.3-18.47-44.3-27.7-72-27.7-41.5 0-74.6 20.71-99.5 62.14-24.8 41.43-37.4 103.46-37.6 186.08 0 55.88 5.6 102.51 16.7 139.92 11.3 37.17 27.3 65.1 47.9 83.81 20.6 18.46 44.8 27.69 72.5 27.69ZM27241.6 11709.3V10982h153.8v581.3h4.3l166.5-104.4v136.4l-180 114h-144.6Zm-598-743.3c61.1.3 113.7 15.3 157.7 45.1 43.8 29.9 77.5 73.1 101.2 129.6 23.5 56.6 35.1 124.7 34.8 204.2 0 79.3-11.7 146.9-35.1 202.8-23.7 55.9-57.5 98.4-101.2 127.5-44.1 29.3-96.5 44-157.4 44-60.8 0-113.1-14.7-156.9-44-44.1-29.4-77.9-72-101.6-127.9-23.7-55.6-35.4-123.1-35.1-202.4 0-79.8 11.8-147.9 35.5-204.5 23.4-56.6 57-99.8 100.8-129.6 43.8-29.9 96.3-44.8 157.3-44.8Zm0 127.5c-41.6 0-74.9 21-99.7 62.9-24.9 41.9-37.2 104.7-37 188.5 0 55.2 5.7 101.1 17.1 137.8 11.1 36.7 27 64.3 47.5 82.8 20.4 18.4 44.4 27.7 72.1 27.7 41.5 0 74.6-20.8 99.5-62.2 24.8-41.4 37.4-103.4 37.6-186.1 0-55.8-5.6-102.5-16.7-139.9-11.3-37.2-27.3-65.1-47.9-83.8-20.6-18.5-44.8-27.7-72.5-27.7ZM25024.1 10982v110.8l-258.9 239.7c-22 21.3-40.5 40.5-55.4 57.5-15.2 17.1-26.7 33.8-34.5 50.1-7.8 16.6-11.7 34.4-11.7 53.6 0 21.3 4.9 39.7 14.6 55.1 9.7 15.6 22.9 27.5 39.7 35.8 16.9 8.6 35.9 12.8 57.2 12.8 22.3 0 41.7-4.5 58.3-13.5 16.5-9 29.3-21.9 38.3-38.7 9-16.8 13.5-36.8 13.5-60h146c0 47.6-10.8 88.9-32.4 123.9-21.5 35.1-51.7 62.2-90.5 81.4-38.8 19.1-83.6 28.7-134.2 28.7-52.1 0-97.5-9.2-136.1-27.7-38.8-18.2-69-43.5-90.5-76-21.6-32.4-32.3-69.6-32.3-111.5 0-27.4 5.4-54.6 16.3-81.3 10.7-26.8 29.7-56.5 57.2-89.1 27.4-32.5 66.2-71.4 116.1-116.9l106.2-104v-5h-305.4V10982h518.5Zm-1055.1-16c61.1.3 113.6 15.3 157.7 45.1 43.8 29.9 77.5 73.1 101.2 129.6 23.4 56.6 35 124.7 34.8 204.2 0 79.3-11.7 146.9-35.2 202.8-23.6 55.9-57.4 98.4-101.2 127.5-44 29.3-96.4 44-157.3 44-60.8 0-113.2-14.7-156.9-44-44.1-29.4-77.9-72-101.6-127.9-23.7-55.6-35.4-123.1-35.2-202.4 0-79.8 11.9-147.9 35.5-204.5 23.5-56.6 57.1-99.8 100.9-129.6 43.8-29.9 96.2-44.8 157.3-44.8Zm0 127.5c-41.7 0-74.9 21-99.8 62.9-24.8 41.9-37.1 104.7-36.9 188.5 0 55.2 5.7 101.1 17 137.8 11.2 36.7 27 64.3 47.6 82.8 20.4 18.4 44.4 27.7 72.1 27.7 41.4 0 74.6-20.8 99.4-62.2 24.9-41.4 37.4-103.4 37.7-186.1 0-55.8-5.6-102.5-16.7-139.9-11.4-37.2-27.3-65.1-47.9-83.8-20.6-18.5-44.8-27.7-72.5-27.7ZM22069.2 10972.1c53.1 0 100.3 9.1 141.7 27.3 41.2 18.5 73.8 43.8 97.7 76 23.7 32.4 35.8 69.8 36.6 112.2h-154.9c-.9-17.7-6.7-33.4-17.4-46.9-10.9-13.2-25.3-23.5-43.3-30.9-18-7.3-38.2-11-60.7-11-23.5 0-44.2 4.2-62.2 12.5-18 8.2-32 19.7-42.2 34.4-10.2 14.7-15.3 31.6-15.3 50.8 0 19.4 5.4 36.6 16.3 51.5 10.7 15.1 26.1 27 46.2 35.5 19.9 8.5 43.6 12.8 71 12.8h67.9v112.9h-67.9c-23.2 0-43.7 4-61.4 12.1-18 8-32 19.2-41.9 33.4-10 14.4-14.9 31.2-14.9 50.4 0 18.2 4.4 34.2 13.1 47.9 8.5 14 20.6 24.9 36.2 32.7 15.4 7.8 33.4 11.7 54 11.7 20.8 0 39.9-3.8 57.2-11.3 17.3-7.4 31.1-17.9 41.5-31.7 10.4-13.7 16-29.8 16.7-48.3h147.4c-.7 42-12.7 78.9-35.9 110.8-23.2 32-54.4 57-93.7 75-39.6 18.2-84.2 27.3-133.9 27.3-50.2 0-94.1-9.1-131.7-27.3-37.7-18.3-66.9-42.9-87.8-73.9-21-30.8-31.4-65.3-31.2-103.7-.2-40.7 12.4-74.7 38-101.9 25.3-27.2 58.3-44.5 99.1-51.8v-5.7c-53.5-6.9-94.3-25.5-122.2-55.8-28.2-30-42.1-67.7-41.9-112.9-.2-41.4 11.7-78.3 35.9-110.4 23.9-32.2 56.9-57.6 99-76 42.2-18.5 90.5-27.7 144.9-27.7Zm-815.5-6.1c61.1.3 113.7 15.3 157.7 45.1 43.8 29.9 77.5 73.1 101.2 129.6 23.4 56.6 35 124.7 34.8 204.2 0 79.3-11.7 146.9-35.2 202.8-23.6 55.9-57.4 98.4-101.2 127.5-44 29.3-96.4 44-157.3 44-60.8 0-113.1-14.7-156.9-44-44.1-29.4-77.9-72-101.6-127.9-23.7-55.6-35.4-123.1-35.2-202.4 0-79.8 11.9-147.9 35.5-204.5 23.5-56.6 57.1-99.8 100.9-129.6 43.8-29.9 96.2-44.8 157.3-44.8Zm0 127.5c-41.7 0-74.9 21-99.8 62.9-24.8 41.9-37.1 104.7-36.9 188.5 0 55.2 5.7 101.1 17 137.8 11.2 36.7 27 64.3 47.6 82.8 20.4 18.4 44.4 27.7 72.1 27.7 41.4 0 74.6-20.8 99.4-62.2 24.9-41.4 37.5-103.4 37.7-186.1 0-55.8-5.6-102.5-16.7-139.9-11.4-37.2-27.3-65.1-47.9-83.8-20.6-18.5-44.8-27.7-72.5-27.7ZM19659.1 11109.8v121.1l-303.7 478.4H19251v-167.6h61.8l191.4-303v-5.6h-431.4v-123.3h586.3ZM19310 10982v164.8l-2.9 53.6v508.9H19163V10982h147Zm-764.8-16c61 .3 113.6 15.3 157.6 45.1 43.8 29.9 77.6 73.1 101.2 129.6 23.5 56.6 35.1 124.7 34.8 204.2 0 79.3-11.7 146.9-35.1 202.8-23.7 55.9-57.4 98.4-101.2 127.5-44.1 29.3-96.5 44-157.3 44-60.9 0-113.2-14.7-157-44-44-29.4-77.9-72-101.6-127.9-23.6-55.6-35.4-123.1-35.1-202.4 0-79.8 11.8-147.9 35.5-204.5 23.4-56.6 57-99.8 100.8-129.6 43.8-29.9 96.3-44.8 157.4-44.8Zm0 127.5c-41.7 0-75 21-99.8 62.9-24.9 41.9-37.2 104.7-37 188.5 0 55.2 5.7 101.1 17.1 137.8 11.1 36.7 27 64.3 47.6 82.8 20.3 18.4 44.4 27.7 72.1 27.7 41.4 0 74.5-20.8 99.4-62.2 24.9-41.4 37.4-103.4 37.6-186.1 0-55.8-5.5-102.5-16.7-139.9-11.3-37.2-27.3-65.1-47.9-83.8-20.6-18.5-44.7-27.7-72.4-27.7ZM16665.4 10972.1c50.2 0 95 9.2 134.3 27.7 39 18.4 70 43.9 93 76.3s34.9 69.6 35.9 111.5h-149.2c-1.6-28.2-13.5-51-35.5-68.5s-48.2-26.3-78.5-26.3c-24.1 0-45.4 5.3-63.9 16-18.7 10.9-33.3 25.9-43.7 45.1-10.6 19.4-16 41.6-16 66.7 0 25.6 5.5 48.1 16.4 67.5 10.6 19.4 25.4 34.6 44.4 45.5 18.9 10.9 40.6 16.4 65 16.7 21.3 0 42-4.4 62.1-13.2 19.9-8.7 35.4-20.7 46.5-35.9l136.7 24.6-34.4 383.5h-444.6v-125.7h317.8l18.8-182.2h-4.2c-12.8 18-32.1 32.9-57.9 44.7-25.8 11.9-54.7 17.8-86.7 17.8-43.8 0-82.8-10.3-117.1-30.9-34.4-20.6-61.5-48.9-81.4-84.9-19.8-35.7-29.7-76.9-29.4-123.6-.3-49 11.1-92.5 34.1-130.6 22.7-37.9 54.5-67.7 95.5-89.5 40.7-21.6 88-32.3 142-32.3Zm-804-6.1c61 .3 113.6 15.3 157.6 45.1 43.8 29.9 77.6 73.1 101.2 129.6 23.5 56.6 35.1 124.7 34.8 204.2 0 79.3-11.7 146.9-35.1 202.8-23.7 55.9-57.4 98.4-101.2 127.5-44.1 29.3-96.5 44-157.3 44-60.9 0-113.2-14.7-157-44-44-29.4-77.9-72-101.6-127.9-23.6-55.6-35.4-123.1-35.1-202.4 0-79.8 11.8-147.9 35.5-204.5 23.4-56.6 57.1-99.8 100.8-129.6 43.8-29.9 96.3-44.8 157.4-44.8Zm0 127.5c-41.7 0-75 21-99.8 62.9-24.9 41.9-37.2 104.7-37 188.5 0 55.2 5.7 101.1 17.1 137.8 11.1 36.7 27 64.3 47.6 82.8 20.3 18.4 44.4 27.7 72.1 27.7 41.4 0 74.5-20.8 99.4-62.2 24.9-41.4 37.4-103.4 37.6-186.1 0-55.8-5.5-102.5-16.7-139.9-11.3-37.2-27.3-65.1-47.9-83.8-20.6-18.5-44.7-27.7-72.4-27.7ZM13903.9 10972.1c37.4.2 73.5 6.5 108.3 18.8 34.6 12.3 65.6 32.3 93.1 60 27.4 27.7 49.2 64.4 65.3 110.1 15.9 45.7 23.8 101.8 23.8 168.3-.2 61.1-7.2 115.6-20.9 163.7-14 48.3-33.9 89.3-59.7 122.9-26 33.6-57.2 59.2-93.4 76.7-36.2 17.7-76.8 26.6-121.8 26.6-48.5 0-91.4-9.5-128.5-28.4-37.2-18.7-67-44.1-89.5-76.3-22.8-32.2-36.5-68.3-41.2-108.4h151.6c5.9 25.4 18.4 45.3 37.3 59.7 18.9 14.4 42.4 21.7 70.3 21.7 47.4 0 83.3-20.6 108-61.8 24.3-41.2 36.8-97.2 37.2-168h-4.9c-10.9 21.6-25.6 39.9-44.1 55.1-18.7 15.3-39.9 27.1-63.5 35.1-23.9 8.3-49.1 12.4-75.7 12.4-43.1 0-81.4-10.1-115-30.5-33.6-20.1-60.2-47.8-79.6-83.1-19.4-35.3-29.1-75.6-29.1-121.1 0-49.2 11.5-93 34.5-131.4 22.7-38.3 54.5-68.4 95.5-90.2 40.7-21.5 88.1-32.2 142-31.9Zm.7 120.7c-23.6 0-44.8 5.7-63.5 17-18.7 11.4-33.4 26.8-44.1 46.2-10.6 19.4-15.9 41.2-15.9 65.3 0 24.2 5.3 45.9 15.9 65 10.5 19.2 24.9 34.5 43.4 45.8 18.4 11.4 39.5 17.1 63.2 17.1 17.7 0 34.2-3.3 49.3-10 15-6.6 28.1-15.8 39.5-27.7 11.1-11.8 19.8-25.5 26.2-41.1 6.4-15.4 9.6-31.9 9.6-49.4 0-23.4-5.3-44.9-16-64.3-10.8-19.4-25.5-34.9-44-46.5-18.7-11.6-39.9-17.4-63.6-17.4Zm-806.9-126.8c61.1.3 113.7 15.3 157.7 45.1 43.8 29.8 77.5 73.1 101.2 129.6 23.5 56.6 35.1 124.7 34.8 204.2 0 79.3-11.7 146.9-35.1 202.8-23.7 55.9-57.4 98.4-101.2 127.5-44.1 29.3-96.5 44-157.4 44-60.8 0-113.1-14.7-156.9-44-44.1-29.4-77.9-72-101.6-127.9-23.7-55.6-35.4-123.1-35.1-202.4 0-79.8 11.8-147.9 35.5-204.5 23.4-56.6 57-99.8 100.8-129.6 43.8-29.9 96.3-44.8 157.3-44.8Zm0 127.5c-41.6 0-74.9 21-99.7 62.9-24.9 41.9-37.2 104.7-37 188.5 0 55.2 5.7 101.1 17.1 137.8 11.1 36.7 27 64.3 47.6 82.8 20.3 18.4 44.3 27.7 72 27.7 41.5 0 74.6-20.8 99.5-62.2 24.8-41.4 37.4-103.5 37.6-186.1 0-55.8-5.6-102.5-16.7-139.9-11.3-37.2-27.3-65.1-47.9-83.8-20.6-18.5-44.8-27.7-72.5-27.7ZM11409.3 10982l-301.5 596.6v5h351.2v125.7h-510.3v-127.5l301.9-599.8h158.7Zm-975.5-16c61.1.3 113.6 15.3 157.7 45.1 43.8 29.8 77.5 73.1 101.2 129.6 23.4 56.6 35 124.7 34.8 204.2 0 79.3-11.7 146.9-35.2 202.8-23.7 55.9-57.4 98.4-101.2 127.5-44 29.3-96.5 44-157.3 44-60.8 0-113.2-14.7-157-44-44-29.4-77.9-72-101.5-127.9-23.7-55.6-35.4-123.1-35.2-202.4 0-79.8 11.9-147.9 35.5-204.5 23.5-56.6 57.1-99.8 100.9-129.6 43.8-29.9 96.2-44.8 157.3-44.8Zm0 127.5c-41.7 0-74.9 21-99.8 62.9-24.9 41.9-37.2 104.7-36.9 188.5 0 55.2 5.7 101.1 17 137.8 11.1 36.7 27 64.3 47.6 82.8 20.4 18.4 44.4 27.7 72.1 27.7 41.4 0 74.6-20.8 99.4-62.2 24.9-41.4 37.4-103.5 37.7-186.1 0-55.8-5.6-102.5-16.7-139.9-11.4-37.2-27.4-65.1-48-83.8-20.6-18.5-44.7-27.7-72.4-27.7ZM8567.74 10972.1c54.69 0 103.34 8.8 145.96 26.6 42.37 18 75.64 42.5 99.78 73.5 24.15 31 36.22 66.2 36.22 105.5 0 30.3-6.86 58.1-20.59 83.4-13.97 25.6-32.91 46.8-56.82 63.6-23.91 17-50.66 27.9-80.26 32.7v4.9c38.83 7.8 70.32 26.7 94.46 56.5 24.15 30.1 36.23 65 36.23 104.7 0 37.7-11.01 71.2-33.03 100.5-22.02 29.6-52.2 52.8-90.55 69.6-38.59 17.1-82.39 25.6-131.4 25.6-49 0-92.68-8.5-131.03-25.6-38.59-17-68.89-40.3-90.91-69.9-22.02-29.4-33.15-62.7-33.38-100.2.23-40 12.54-74.9 36.93-104.7 24.38-29.8 55.63-48.7 93.75-56.5v-4.9c-29.12-4.8-55.52-15.7-79.19-32.7-23.91-16.8-42.85-38-56.82-63.6-14.2-25.3-21.42-53.1-21.66-83.4.24-39.3 12.43-74.5 36.58-105.5 24.14-31 57.52-55.5 100.14-73.5 42.37-17.8 90.91-26.6 145.59-26.6Zm0 112.9c-24.38 0-45.69 4.4-63.92 13.1-18.23 9-32.43 21.3-42.61 37-10.42 15.8-15.62 34-15.62 54.6 0 21.1 5.32 39.7 15.98 55.8 10.65 16.3 25.09 29.1 43.32 38.3 18.23 9.5 39.18 14.3 62.85 14.3 23.44 0 44.39-4.8 62.86-14.3 18.47-9.2 33.03-22 43.68-38.3 10.42-16.1 15.62-34.7 15.62-55.8 0-20.6-5.09-38.8-15.27-54.6-10.18-15.7-24.5-28-42.97-37-18.46-8.7-39.77-13.1-63.92-13.1Zm0 324.9c-20.36 0-38.47 4.2-54.33 12.4-15.86 8.3-28.29 19.8-37.28 34.5-9 14.7-13.5 31.6-13.5 50.8 0 18.9 4.5 35.5 13.5 49.7 8.99 14.4 21.3 25.7 36.93 33.7 15.62 8.3 33.85 12.4 54.68 12.4 20.6 0 38.83-4.1 54.69-12.4 15.86-8 28.29-19.3 37.29-33.7 8.76-14.2 13.14-30.8 13.14-49.7 0-19.2-4.5-36.1-13.5-50.8-8.99-14.7-21.42-26.2-37.28-34.5-15.86-8.2-33.98-12.4-54.34-12.4Zm-814.98-443.9c61.08.3 113.64 15.3 157.67 45.1 43.8 29.8 77.54 73.1 101.21 129.6 23.44 56.6 35.04 124.7 34.8 204.2 0 79.3-11.72 146.9-35.16 202.8-23.67 55.9-57.41 98.4-101.2 127.5-44.04 29.3-96.48 44-157.32 44-60.84 0-113.16-14.7-156.96-44-44.03-29.4-77.89-72-101.56-127.9-23.67-55.6-35.39-123.1-35.16-202.4 0-79.8 11.84-147.9 35.51-204.5 23.44-56.6 57.06-99.8 100.86-129.6 43.79-29.9 96.23-44.8 157.31-44.8Zm0 127.5c-41.66 0-74.93 21-99.78 62.9-24.86 41.9-37.17 104.7-36.94 188.5 0 55.2 5.69 101.1 17.05 137.8 11.13 36.7 26.99 64.3 47.58 82.8 20.36 18.4 44.39 27.7 72.09 27.7 41.43 0 74.58-20.8 99.43-62.2 24.86-41.4 37.41-103.5 37.65-186.1 0-55.8-5.57-102.5-16.69-139.9-11.37-37.2-27.35-65.1-47.94-83.8-20.6-18.5-44.75-27.7-72.45-27.7ZM5894.91 11719.2c-37.4 0-73.39-6.3-107.95-18.8-34.8-12.6-65.82-32.6-93.04-60-27.46-27.5-49.13-63.9-64.99-109.4-16.1-45.2-24.26-100.7-24.5-166.5 0-61.8 6.98-117 20.95-165.5 13.73-48.3 33.5-89.4 59.3-123.3 25.81-33.8 56.94-59.6 93.4-77.4 36.46-17.5 77.18-26.2 122.16-26.2 48.53 0 91.38 9.3 128.55 28 37.17 19 67.12 44.6 89.84 77.1 22.49 32.6 36.11 69.3 40.84 110.1h-151.63c-5.92-26.6-18.35-47.2-37.29-61.8-18.94-14.5-42.38-21.7-70.31-21.7-47.35 0-83.33 20.6-107.96 61.8-24.62 41.4-37.05 98.1-37.28 170.1h4.97c10.89-21.3 25.57-39.7 44.03-55 18.47-15.2 39.66-26.9 63.57-35.2 23.67-8.3 48.89-12.4 75.64-12.4 42.85 0 81.08 10 114.7 30.1 33.62 20.2 60.13 47.9 79.54 83.1 19.42 35.3 29.12 75.6 29.12 120.8.24 48.8-11 92.2-33.73 130.3-22.73 38.1-54.45 68-95.17 89.5-40.96 21.8-88.54 32.6-142.76 32.3Zm-1.06-120.7c23.91 0 45.21-5.7 63.92-17.1 18.46-11.3 33.14-26.6 44.03-45.8 10.65-19.2 15.86-40.6 15.63-64.3 0-23.9-5.21-45.4-15.63-64.6-10.65-18.9-25.09-34.1-43.32-45.4-18.47-11.2-39.54-16.7-63.21-16.7-17.76 0-34.21 3.3-49.36 9.9-15.16 6.6-28.29 15.8-39.42 27.4-11.36 11.8-20.24 25.4-26.63 40.8-6.4 15.4-9.59 31.7-9.59 49 .23 23 5.68 44 16.33 63.2 10.66 19.2 25.33 34.6 44.04 46.2 18.7 11.6 39.77 17.4 63.21 17.4Zm-821.11-632.5c61.08.3 113.64 15.3 157.67 45.1 43.8 29.8 77.53 73.1 101.21 129.6 23.43 56.6 35.03 124.7 34.8 204.2 0 79.3-11.72 146.9-35.16 202.8-23.67 55.9-57.41 98.4-101.21 127.5-44.03 29.3-96.47 44-157.31 44s-113.16-14.7-156.96-44c-44.04-29.4-77.89-72-101.56-127.9-23.68-55.6-35.4-123.1-35.16-202.4 0-79.8 11.84-147.9 35.51-204.5 23.44-56.6 57.06-99.8 100.85-129.6 43.8-29.9 96.24-44.8 157.32-44.8Zm0 127.5c-41.67 0-74.93 21-99.79 62.9s-37.17 104.7-36.93 188.5c0 55.2 5.68 101.1 17.05 137.8 11.12 36.7 26.98 64.3 47.58 82.8 20.36 18.4 44.39 27.7 72.09 27.7 41.43 0 74.57-20.8 99.43-62.2 24.86-41.4 37.41-103.5 37.64-186.1 0-55.8-5.56-102.5-16.69-139.9-11.36-37.2-27.34-65.1-47.94-83.8-20.59-18.5-44.74-27.7-72.44-27.7Z"/></svg>