<svg width="451" height="125" viewBox="0 0 451 125" fill="none" xmlns="http://www.w3.org/2000/svg">
<rect y="90" width="451" height="24" fill="#E7ADC5"/>
<path d="M6.63707 102V25.6364H57.1982V38.9478H22.7823V57.1438H53.8423V70.4553H22.7823V102H6.63707ZM138.232 63.8182C138.232 72.1456 136.654 79.2301 133.497 85.0717C130.364 90.9134 126.089 95.3754 120.67 98.4577C115.276 101.515 109.21 103.044 102.474 103.044C95.6876 103.044 89.5974 101.503 84.2032 98.4205C78.809 95.3381 74.5459 90.8761 71.4138 85.0344C68.2817 79.1928 66.7156 72.1207 66.7156 63.8182C66.7156 55.4908 68.2817 48.4062 71.4138 42.5646C74.5459 36.723 78.809 32.2734 84.2032 29.2159C89.5974 26.1335 95.6876 24.5923 102.474 24.5923C109.21 24.5923 115.276 26.1335 120.67 29.2159C126.089 32.2734 130.364 36.723 133.497 42.5646C136.654 48.4062 138.232 55.4908 138.232 63.8182ZM121.863 63.8182C121.863 58.424 121.055 53.875 119.439 50.1712C117.848 46.4673 115.599 43.6584 112.69 41.7443C109.782 39.8303 106.377 38.8732 102.474 38.8732C98.5711 38.8732 95.1656 39.8303 92.2572 41.7443C89.3488 43.6584 87.0867 46.4673 85.471 50.1712C83.8801 53.875 83.0846 58.424 83.0846 63.8182C83.0846 69.2124 83.8801 73.7614 85.471 77.4652C87.0867 81.169 89.3488 83.978 92.2572 85.892C95.1656 87.8061 98.5711 88.7631 102.474 88.7631C106.377 88.7631 109.782 87.8061 112.69 85.892C115.599 83.978 117.848 81.169 119.439 77.4652C121.055 73.7614 121.863 69.2124 121.863 63.8182ZM150.192 102V25.6364H180.32C186.087 25.6364 191.009 26.668 195.085 28.7312C199.187 30.7695 202.306 33.6655 204.444 37.419C206.607 41.1477 207.688 45.5352 207.688 50.5813C207.688 55.6523 206.594 60.0149 204.407 63.669C202.219 67.2983 199.05 70.0824 194.899 72.0213C190.772 73.9602 185.776 74.9297 179.909 74.9297H159.737V61.9538H177.299C180.382 61.9538 182.942 61.5312 184.98 60.6861C187.019 59.8409 188.535 58.5732 189.529 56.8828C190.549 55.1925 191.058 53.092 191.058 50.5813C191.058 48.0458 190.549 45.908 189.529 44.168C188.535 42.4279 187.006 41.1104 184.943 40.2156C182.905 39.2958 180.332 38.8359 177.225 38.8359H166.337V102H150.192ZM191.431 67.2486L210.41 102H192.587L174.018 67.2486H191.431ZM219.098 25.6364H239.009L260.039 76.9432H260.934L281.964 25.6364H301.875V102H286.214V52.2965H285.581L265.819 101.627H255.154L235.392 52.1101H234.759V102H219.098V25.6364ZM331.322 25.6364V102H315.177V25.6364H331.322Z" fill="black"/>
</svg>
